<svg xmlns="http://www.w3.org/2000/svg" viewBox="0 0 512 512" width="512" height="512" xmlns:c2pa="http://c2pa.org/manifest"><metadata><c2pa:manifest>AAAWgmp1bWIAAAAeanVtZGMycGEAEQAQgAAAqgA4m3EDYzJwYQAAABZcanVtYgAAAEdqdW1kYzJtYQARABCAAACqADibcQN1cm46YzJwYTo1MGNhYzgyOC0xN2MzLTRlNjItODAwMi03YjNkNmRkM2VlOGEAAAADl2p1bWIAAAApanVtZGMyYXMAEQAQgAAAqgA4m3EDYzJwYS5hc3NlcnRpb25zAAAAALxqdW1iAAAARGp1bWRjYm9yABEAEIAAAKoAOJtxE2MycGEuaW5ncmVkaWVudC52MwAAAAAYYzJzaBeGSnCJeuWCVzLimh65VEAAAABwY2JvcqNpZGM6Zm9ybWF0bWltYWdlL3N2Zyt4bWxqaW5zdGFuY2VJRHgseG1wOmlpZDowNTc5NmY3MC01MzYzLTQ3ZDUtOWQ5Mi1iNTMzODgyNTcwNWVscmVsYXRpb25zaGlwaHBhcmVudE9mAAAB4mp1bWIAAABBanVtZGNib3IAEQAQgAAAqgA4m3ETYzJwYS5hY3Rpb25zLnYyAAAAABhjMnNox1tWz1DqRragrXr/XyLp2AAAAZljYm9yomdhY3Rpb25zgqJmYWN0aW9ua2MycGEub3BlbmVkanBhcmFtZXRlcnOha2luZ3JlZGllbnRzgaJjdXJseC1zZWxmI2p1bWJmPWMycGEuYXNzZXJ0aW9ucy9jMnBhLmluZ3JlZGllbnQudjNkaGFzaFggq/Me/smhLPdmYtYGPSvLoY7hymljIB+CrhPrSedA7cSkZmFjdGlvbngdY29tLmFudGhyb3BpYy5jbGF1ZGUucHJvdmlkZWRqcGFyYW1ldGVyc6F4H2NvbS5hbnRocm9waWMub3JpZ2luLWNvbmZpZGVuY2VndW5rbm93bmtkZXNjcmlwdGlvbnhmQ2xhdWRlIHByb3ZpZGVkIHRoaXMgZmlsZSBhdCB0aGUgcmVxdWVzdCBvZiBhIHVzZXIgYW5kIG1heSBoYXZlIGNyZWF0ZWQgb3IgbW9kaWZpZWQgdGhlIGZpbGUgY29udGVudHMubXNvZnR3YXJlQWdlbnShZG5hbWVmQ2xhdWRlcmFsbEFjdGlvbnNJbmNsdWRlZPUAAADIanVtYgAAAEBqdW1kY2JvcgARABCAAACqADibcRNjMnBhLmhhc2guZGF0YQAAAAAYYzJzaE+eRjLlwYCSx6KIobc5DJEAAACAY2JvcqVjYWxnZnNoYTI1NmNwYWRNAAAAAAAAAAAAAAAAAGRoYXNoWCABJfDXatAtbIkhmfoOJbNAkrPMpgcZaZjQf95hyuVWqmRuYW1lbmp1bWJmIG1hbmlmZXN0amV4Y2x1c2lvbnOBomVzdGFydBiWZmxlbmd0aBkeBAAAAj5qdW1iAAAAJ2p1bWRjMmNsABEAEIAAAKoAOJtxA2MycGEuY2xhaW0udjIAAAACD2Nib3KlY2FsZ2ZzaGEyNTZpc2lnbmF0dXJleE1zZWxmI2p1bWJmPS9jMnBhL3VybjpjMnBhOjUwY2FjODI4LTE3YzMtNGU2Mi04MDAyLTdiM2Q2ZGQzZWU4YS9jMnBhLnNpZ25hdHVyZWppbnN0YW5jZUlEeCx4bXA6aWlkOjAxZmUwNzFiLWQxMGQtNDZlOC1iMjYxLTZmYWE3MDQzYmVlMnJjcmVhdGVkX2Fzc2VydGlvbnODomN1cmx4LXNlbGYjanVtYmY9YzJwYS5hc3NlcnRpb25zL2MycGEuaW5ncmVkaWVudC52M2RoYXNoWCCr8x7+yaEs92Zi1gY9K8uhjuHKaWMgH4KuE+tJ50DtxKJjdXJseCpzZWxmI2p1bWJmPWMycGEuYXNzZXJ0aW9ucy9jMnBhLmFjdGlvbnMudjJkaGFzaFggmwXQHxaNcrcG5e/s3VqRzJrAXJHaZBIXTkz9a6+HVP6iY3VybHgpc2VsZiNqdW1iZj1jMnBhLmFzc2VydGlvbnMvYzJwYS5oYXNoLmRhdGFkaGFzaFggdKWawgud4Z25ToQU4ZM7QnFedzc4i7wiaihLZxYjxpJ0Y2xhaW1fZ2VuZXJhdG9yX2luZm+jZG5hbWVvQW50aHJvcGljIEZpbGVzZ3ZlcnNpb25lMS4wLjBrc3BlY1ZlcnNpb25lMi40LjAAABA4anVtYgAAAChqdW1kYzJjcwARABCAAACqADibcQNjMnBhLnNpZ25hdHVyZQAAABAIY2JvctKEWQISogEmGCFZAgowggIGMIIBjaADAgECAhRA5aAK7sI50L64g/oGQgU9Z1UTADAKBggqhkjOPQQDAzBJMRcwFQYDVQQKEw5BbnRocm9waWMsIFBCQzEuMCwGA1UEAxMlQW50aHJvcGljIENvbnRlbnQgQ3JlZGVudGlhbHMgUm9vdCBDQTAeFw0yNjA4MDcxODQzNTZaFw0yODA4MDYxOTQzNTZaMEQxFzAVBgNVBAoTDkFudGhyb3BpYywgUEJDMSkwJwYDVQQDEyBBbnRocm9waWMgQ2xhdWRlIENvbnRlbnQgU2lnbmluZzBZMBMGByqGSM49AgEGCCqGSM49AwEHA0IABJh6CmvLUBgFFNU0vUKlOVtE6djd17L5SuwX0LemFisBM3dkd/3cyjxFA3Qo5S46fX0/ihY0VZ7mfb9KF703t5OjWDBWMA4GA1UdDwEB/wQEAwIHgDAVBgNVHSUEDjAMBgorBgEEAYPoXgIBMAwGA1UdEwEB/wQCMAAwHwYDVR0jBBgwFoAUzlHiBIFOZFsj+OPEz5o+nMHXXMIwCgYIKoZIzj0EAwMDZwAwZAIwMXMdFJ4BetLLVY7ORuE9noqbbAZOZn/aArXyTwFAZfKrPzxF2vPoJNf1+UCdg1XGAjBwX1zd9WGqYkqmL5SFqw1QySjr1zJfpJM9+1rdDwSPLMOPOjKuiXjoU/pUUeG9RwmhY3BhZFkNngAAAAAAAAAAAAAAAAAAAAAAAAAAAAAAAAAAAAAAAAAAAAAAAAAAAAAAAAAAAAAAAAAAAAAAAAAAAAAAAAAAAAAAAAAAAAAAAAAAAAAAAAAAAAAAAAAAAAAAAAAAAAAAAAAAAAAAAAAAAAAAAAAAAAAAAAAAAAAAAAAAAAAAAAAAAAAAAAAAAAAAAAAAAAAAAAAAAAAAAAAAAAAAAAAAAAAAAAAAAAAAAAAAAAAAAAAAAAAAAAAAAAAAAAAAAAAAAAAAAAAAAAAAAAAAAAAAAAAAAAAAAAAAAAAAAAAAAAAAAAAAAAAAAAAAAAAAAAAAAAAAAAAAAAAAAAAAAAAAAAAAAAAAAAAAAAAAAAAAAAAAAAAAAAAAAAAAAAAAAAAAAAAAAAAAAAAAAAAAAAAAAAAAAAAAAAAAAAAAAAAAAAAAAAAAAAAAAAAAAAAAAAAAAAAAAAAAAAAAAAAAAAAAAAAAAAAAAAAAAAAAAAAAAAAAAAAAAAAAAAAAAAAAAAAAAAAAAAAAAAAAAAAAAAAAAAAAAAAAAAAAAAAAAAAAAAAAAAAAAAAAAAAAAAAAAAAAAAAAAAAAAAAAAAAAAAAAAAAAAAAAAAAAAAAAAAAAAAAAAAAAAAAAAAAAAAAAAAAAAAAAAAAAAAAAAAAAAAAAAAAAAAAAAAAAAAAAAAAAAAAAAAAAAAAAAAAAAAAAAAAAAAAAAAAAAAAAAAAAAAAAAAAAAAAAAAAAAAAAAAAAAAAAAAAAAAAAAAAAAAAAAAAAAAAAAAAAAAAAAAAAAAAAAAAAAAAAAAAAAAAAAAAAAAAAAAAAAAAAAAAAAAAAAAAAAAAAAAAAAAAAAAAAAAAAAAAAAAAAAAAAAAAAAAAAAAAAAAAAAAAAAAAAAAAAAAAAAAAAAAAAAAAAAAAAAAAAAAAAAAAAAAAAAAAAAAAAAAAAAAAAAAAAAAAAAAAAAAAAAAAAAAAAAAAAAAAAAAAAAAAAAAAAAAAAAAAAAAAAAAAAAAAAAAAAAAAAAAAAAAAAAAAAAAAAAAAAAAAAAAAAAAAAAAAAAAAAAAAAAAAAAAAAAAAAAAAAAAAAAAAAAAAAAAAAAAAAAAAAAAAAAAAAAAAAAAAAAAAAAAAAAAAAAAAAAAAAAAAAAAAAAAAAAAAAAAAAAAAAAAAAAAAAAAAAAAAAAAAAAAAAAAAAAAAAAAAAAAAAAAAAAAAAAAAAAAAAAAAAAAAAAAAAAAAAAAAAAAAAAAAAAAAAAAAAAAAAAAAAAAAAAAAAAAAAAAAAAAAAAAAAAAAAAAAAAAAAAAAAAAAAAAAAAAAAAAAAAAAAAAAAAAAAAAAAAAAAAAAAAAAAAAAAAAAAAAAAAAAAAAAAAAAAAAAAAAAAAAAAAAAAAAAAAAAAAAAAAAAAAAAAAAAAAAAAAAAAAAAAAAAAAAAAAAAAAAAAAAAAAAAAAAAAAAAAAAAAAAAAAAAAAAAAAAAAAAAAAAAAAAAAAAAAAAAAAAAAAAAAAAAAAAAAAAAAAAAAAAAAAAAAAAAAAAAAAAAAAAAAAAAAAAAAAAAAAAAAAAAAAAAAAAAAAAAAAAAAAAAAAAAAAAAAAAAAAAAAAAAAAAAAAAAAAAAAAAAAAAAAAAAAAAAAAAAAAAAAAAAAAAAAAAAAAAAAAAAAAAAAAAAAAAAAAAAAAAAAAAAAAAAAAAAAAAAAAAAAAAAAAAAAAAAAAAAAAAAAAAAAAAAAAAAAAAAAAAAAAAAAAAAAAAAAAAAAAAAAAAAAAAAAAAAAAAAAAAAAAAAAAAAAAAAAAAAAAAAAAAAAAAAAAAAAAAAAAAAAAAAAAAAAAAAAAAAAAAAAAAAAAAAAAAAAAAAAAAAAAAAAAAAAAAAAAAAAAAAAAAAAAAAAAAAAAAAAAAAAAAAAAAAAAAAAAAAAAAAAAAAAAAAAAAAAAAAAAAAAAAAAAAAAAAAAAAAAAAAAAAAAAAAAAAAAAAAAAAAAAAAAAAAAAAAAAAAAAAAAAAAAAAAAAAAAAAAAAAAAAAAAAAAAAAAAAAAAAAAAAAAAAAAAAAAAAAAAAAAAAAAAAAAAAAAAAAAAAAAAAAAAAAAAAAAAAAAAAAAAAAAAAAAAAAAAAAAAAAAAAAAAAAAAAAAAAAAAAAAAAAAAAAAAAAAAAAAAAAAAAAAAAAAAAAAAAAAAAAAAAAAAAAAAAAAAAAAAAAAAAAAAAAAAAAAAAAAAAAAAAAAAAAAAAAAAAAAAAAAAAAAAAAAAAAAAAAAAAAAAAAAAAAAAAAAAAAAAAAAAAAAAAAAAAAAAAAAAAAAAAAAAAAAAAAAAAAAAAAAAAAAAAAAAAAAAAAAAAAAAAAAAAAAAAAAAAAAAAAAAAAAAAAAAAAAAAAAAAAAAAAAAAAAAAAAAAAAAAAAAAAAAAAAAAAAAAAAAAAAAAAAAAAAAAAAAAAAAAAAAAAAAAAAAAAAAAAAAAAAAAAAAAAAAAAAAAAAAAAAAAAAAAAAAAAAAAAAAAAAAAAAAAAAAAAAAAAAAAAAAAAAAAAAAAAAAAAAAAAAAAAAAAAAAAAAAAAAAAAAAAAAAAAAAAAAAAAAAAAAAAAAAAAAAAAAAAAAAAAAAAAAAAAAAAAAAAAAAAAAAAAAAAAAAAAAAAAAAAAAAAAAAAAAAAAAAAAAAAAAAAAAAAAAAAAAAAAAAAAAAAAAAAAAAAAAAAAAAAAAAAAAAAAAAAAAAAAAAAAAAAAAAAAAAAAAAAAAAAAAAAAAAAAAAAAAAAAAAAAAAAAAAAAAAAAAAAAAAAAAAAAAAAAAAAAAAAAAAAAAAAAAAAAAAAAAAAAAAAAAAAAAAAAAAAAAAAAAAAAAAAAAAAAAAAAAAAAAAAAAAAAAAAAAAAAAAAAAAAAAAAAAAAAAAAAAAAAAAAAAAAAAAAAAAAAAAAAAAAAAAAAAAAAAAAAAAAAAAAAAAAAAAAAAAAAAAAAAAAAAAAAAAAAAAAAAAAAAAAAAAAAAAAAAAAAAAAAAAAAAAAAAAAAAAAAAAAAAAAAAAAAAAAAAAAAAAAAAAAAAAAAAAAAAAAAAAAAAAAAAAAAAAAAAAAAAAAAAAAAAAAAAAAAAAAAAAAAAAAAAAAAAAAAAAAAAAAAAAAAAAAAAAAAAAAAAAAAAAAAAAAAAAAAAAAAAAAAAAAAAAAAAAAAAAAAAAAAAAAAAAAAAAAAAAAAAAAAAAAAAAAAAAAAAAAAAAAAAAAAAAAAAAAAAAAAAAAAAAAAAAAAAAAAAAAAAAAAAAAAAAAAAAAAAAAAAAAAAAAAAAAAAAAAAAAAAAAAAAAAAAAAAAAAAAAAAAAAAAAAAAAAAAAAAAAAAAAAAAAAAAAAAAAAAAAAAAAAAAAAAAAAAAAAAAAAAAAAAAAAAAAAAAAAAAAAAAAAAAAAAAAAAAAAAAAAAAAAAAAAAAAAAAAAAAAAAAAAAAAAAAAAAAAAAAAAAAAAAAAAAAAAAAAAAAAAAAAAAAAAAAAAAAAAAAAAAAAAAAAAAAAAAAAAAAAAAAAAAAAAAAAAAAAAAAAAAAAAAAAAAAAAAAAAAAAAAAAAAAAAAAAAAAAAAAAAAAAAAAAAAAAAAAAAAAAAAAAAAAAAAAAAAAAAAAAAAAAAAAAAAAAAAAAAAAAAAAAAAAAAAAAAAAAAAAAAAAAAAAAAAAAAAAAAAAAAAAAAAAAAAAAAAAAAAAAAAAAAAAAAAAAAAAAAAAAAAAAAAAAAAAAAAAAAAAAAAAAAAAAAAAAAAAAAAAAAAAAAAAAAAAAAAAAAAAAAAAAAAAAAAAAAAAAAAAAAAAAAAAAAAAAAAAAAAAAAAAAAAAAAAAAAAAAAAAAAAAAAAAAAAAAAAAAAAAAAAAAAAAAAAAAAAAAAAAAAAAAAAAAAAAAAAAAAAAAAAAAAAAAAAAAAAAAAAAAAAAAAAAAAAAAAAAAAAAAAAAAAAAAAAAAAAAAAAAAAAAAAAAAAAAAAAAAAAAAAAAAAAAAAAAAAAAAAAAAAAAAAAAAAAAAAAAAAAAAAAAAAAAAAAAAAAAAAAAAAAAAAAAAAAAAAAAAAAAAAAAAAAAAAAAAAAAAAAAAAAAAAAAAAAAAAAAAAAAAAAAAAAAAAAAAAAAAAAAAAAAAAAAAAAAAAAAAAAAAAAAAAAAAAAAAAAAAAAAAAAAAAAAAAAAAAAAAAAAAAAAAAAAAAAAAAAAAAAAAAAAAAAAAAAAAAAAAAAAAAAAAAAAAAAAAAAAAAAAAAAAAAAAAAAAAAAAAAAAAAAAAAAAAAAAAAAAAAAAAAAAAAAAAAAAAAAAAAAAAAAAAAAAAAAAAAAAAAAAAAAAAAAAAAAAAAAAAAAAAAAAAAAAAAAAAAAAAAAAAAAAAAAAAAAAAAAAAAAAAAAAAAAAAAAAAAAAAAAAAAAAAAAAAAAAAAAAAAAAAAAAAAAAAAAAAAAAAAAAAAAAAAAAAAAAAAAAAAAAAAAAAAAAAAAAAAAAAAAAAAAAAAAAAAAAAAAAAAAAAAAAAAAAAAAAAAAAAAAAAAAAAAAAAAAAAAAAAAAAAAAAAAAAAAAAAAAAAAAAAAAAAAAAAAAAAAAAAAAAAAAAAAAAAAAAAAAAAAAAAAAAAAAAAAAAAAAAAAAAAAAAAAAAAAAAAAAAAAAAAAAAAAAAAAAAAAAAAAAAAAAAAPZYQMR7/wYZWA9YvwOTtYrLhexpNrnKGswVXKQrJZpKi56F4pKru1NMVLN6GUz0pPwnVltl6O3LxiX5T01XDaKHDD0=</c2pa:manifest></metadata>
<defs>
  <clipPath id="sq"><rect x="16" y="16" width="480" height="480" rx="112"/></clipPath>
  <radialGradient id="bg" cx="256" cy="300" r="330" gradientUnits="userSpaceOnUse">
    <stop offset="0" stop-color="#3f0e0a"/><stop offset=".45" stop-color="#1a0a0c"/><stop offset="1" stop-color="#07050a"/>
  </radialGradient>
  <linearGradient id="topFace" x1="0" y1="0" x2="0" y2="1" gradientUnits="userSpaceOnUse" gradientTransform="translate(0 104) scale(1 172)">
    <stop offset="0" stop-color="#443a3e"/><stop offset=".55" stop-color="#241d20"/><stop offset="1" stop-color="#161113"/>
  </linearGradient>
  <linearGradient id="sideL" x1="0" y1="0" x2="0" y2="1">
    <stop offset="0" stop-color="#130e10"/><stop offset=".55" stop-color="#1f1113"/><stop offset="1" stop-color="#5e1609"/>
  </linearGradient>
  <linearGradient id="sideR" x1="0" y1="0" x2="0" y2="1">
    <stop offset="0" stop-color="#2a2024"/><stop offset=".5" stop-color="#36191a"/><stop offset="1" stop-color="#8f2610"/>
  </linearGradient>
  <linearGradient id="lava" x1="0" y1="0" x2="0" y2="1">
    <stop offset="0" stop-color="#fff2b8"/><stop offset=".35" stop-color="#ffb13a"/><stop offset=".75" stop-color="#ff4a12"/><stop offset="1" stop-color="#b3150a"/>
  </linearGradient>
  <linearGradient id="beam" x1="0" y1="1" x2="0" y2="0">
    <stop offset="0" stop-color="#fff4c8"/><stop offset=".3" stop-color="#ffb13a"/><stop offset=".7" stop-color="#ff4a12" stop-opacity=".5"/><stop offset="1" stop-color="#ff2a0a" stop-opacity="0"/>
  </linearGradient>
  <radialGradient id="coreGrad" cx="256" cy="200" r="150" gradientUnits="userSpaceOnUse">
    <stop offset="0" stop-color="#fff2b8"/><stop offset=".3" stop-color="#ffb13a"/><stop offset=".7" stop-color="#ff4a12"/><stop offset="1" stop-color="#9e1409"/>
  </radialGradient>
  <radialGradient id="bloom" cx=".5" cy=".5" r=".5">
    <stop offset="0" stop-color="#ffd27a" stop-opacity=".85"/><stop offset=".4" stop-color="#ff5a14" stop-opacity=".35"/><stop offset="1" stop-color="#ff2a0a" stop-opacity="0"/>
  </radialGradient>
  <radialGradient id="pool" cx=".5" cy=".5" r=".5">
    <stop offset="0" stop-color="#ff3a12" stop-opacity=".7"/><stop offset=".5" stop-color="#a0120a" stop-opacity=".3"/><stop offset="1" stop-color="#5a0806" stop-opacity="0"/>
  </radialGradient>
  <filter id="blur4" x="-50%" y="-50%" width="200%" height="200%"><feGaussianBlur stdDeviation="4"/></filter>
  <filter id="blur8" x="-50%" y="-50%" width="200%" height="200%"><feGaussianBlur stdDeviation="8"/></filter>
  <filter id="blur18" x="-50%" y="-50%" width="200%" height="200%"><feGaussianBlur stdDeviation="18"/></filter>
  <filter id="blur2" x="-50%" y="-50%" width="200%" height="200%"><feGaussianBlur stdDeviation="2.2"/></filter>
  <filter id="grain" x="0" y="0" width="100%" height="100%">
    <feTurbulence type="fractalNoise" baseFrequency=".85" numOctaves="2" seed="3"/>
    <feColorMatrix values="0 0 0 0 1  0 0 0 0 .8  0 0 0 0 .75  0 0 0 .9 -.35"/>
  </filter>
</defs>
<g clip-path="url(#sq)">
  <rect x="16" y="16" width="480" height="480" fill="url(#bg)"/>
  <rect x="16" y="16" width="480" height="480" filter="url(#grain)" opacity=".10"/>
  <ellipse cx="256" cy="426" rx="210" ry="56" fill="url(#pool)"/>

  <!-- the beam tearing upward out of the split -->
  <ellipse cx="256" cy="104" rx="90" ry="70" fill="url(#bloom)"/>
  <polygon points="196,190 256,-20 316,190" fill="url(#beam)" filter="url(#blur18)"/>
  <polygon points="236,200 256,-10 276,200" fill="url(#beam)" filter="url(#blur4)"/>
  <polygon points="251,160 256,14 261,160" fill="#fff4c8" opacity=".85" filter="url(#blur2)"/>

  <!-- seam flares -->
  <g filter="url(#blur2)">
    <polygon points="93,230 22,238 93,246" fill="#ff7a1c" opacity=".7"/>
    <polygon points="419,230 490,238 419,246" fill="#ff7a1c" opacity=".7"/>
  </g>
  <g filter="url(#blur18)">
    <polygon points="106.0,224.0 256.0,310.0 406.0,224.0 406.0,250.0 256.0,336.0 106.0,250.0" fill="#ff5a14"/>
    <polygon points="106.0,284.0 256.0,370.0 406.0,284.0 406.0,296.0 256.0,382.0 106.0,296.0" fill="#e0300c" opacity=".8"/>
  </g>

  <polygon points="106.0,296.0 256.0,382.0 256.0,416.0 106.0,330.0" fill="url(#sideL)"/><polygon points="256.0,382.0 406.0,296.0 406.0,330.0 256.0,416.0" fill="url(#sideR)"/><line x1="256" y1="382" x2="256" y2="416" stroke="#b09094" stroke-opacity=".4" stroke-width="1.5"/>
  <polygon points="106.0,284.0 256.0,370.0 406.0,284.0 406.0,296.0 256.0,382.0 106.0,296.0" fill="url(#lava)"/>
  <polygon points="106.0,250.0 256.0,336.0 256.0,370.0 106.0,284.0" fill="url(#sideL)"/><polygon points="256.0,336.0 406.0,250.0 406.0,284.0 256.0,370.0" fill="url(#sideR)"/><line x1="256" y1="336" x2="256" y2="370" stroke="#b09094" stroke-opacity=".4" stroke-width="1.5"/>
  <polygon points="106.0,224.0 256.0,310.0 406.0,224.0 406.0,250.0 256.0,336.0 106.0,250.0" fill="url(#lava)"/>

  <!-- molten core exposed under the halves -->
  <polygon points="256.0,104.0 406.0,190.0 406.0,224.0 256.0,310.0 106.0,224.0 106.0,190.0" fill="#ff5a14" filter="url(#blur8)"/>
  <polygon points="256.0,104.0 406.0,190.0 406.0,224.0 256.0,310.0 106.0,224.0 106.0,190.0" fill="url(#coreGrad)"/>
  <!-- molten split between the halves -->
  <polygon points="231.5,87.8 226.8,108.5 242.8,125.7 233.0,146.0 249.4,166.3 239.1,190.6 251.6,211.3 242.2,235.5 250.9,258.7 246.4,272.3 256.5,281.2 254.8,292.5 257.2,292.5 261.5,281.9 253.6,270.9 261.1,258.7 257.8,234.2 272.4,212.7 264.9,189.7 280.4,168.3 269.0,144.9 283.1,127.3 271.3,106.9 280.5,87.8" fill="#ff5a14" filter="url(#blur8)"/>
  <polygon points="231.5,87.8 226.8,108.5 242.8,125.7 233.0,146.0 249.4,166.3 239.1,190.6 251.6,211.3 242.2,235.5 250.9,258.7 246.4,272.3 256.5,281.2 254.8,292.5 257.2,292.5 261.5,281.9 253.6,270.9 261.1,258.7 257.8,234.2 272.4,212.7 264.9,189.7 280.4,168.3 269.0,144.9 283.1,127.3 271.3,106.9 280.5,87.8" fill="url(#lava)"/>

  <polygon points="92.2,190.2 231.5,87.8 226.8,108.5 242.8,125.7 233.0,146.0 249.4,166.3 239.1,190.6 251.6,211.3 242.2,235.5 250.9,258.7" fill="url(#topFace)"/><polygon points="92.2,190.2 250.9,258.7 246.4,272.3 256.5,281.2 254.8,292.5 96.0,224.0" fill="url(#sideL)"/><g filter="url(#blur4)"><polygon points="239.1,190.6 217.2,181.8 207.5,194.2 182.4,188.9 165.6,202.0 147.8,202.0 147.8,202.0 167.2,209.8 184.1,201.0 210.5,205.9 219.8,190.0 239.1,190.6" fill="#ff2a0a" opacity=".85"/><polygon points="242.8,125.7 224.7,125.0 210.2,117.3 194.7,136.3 194.7,136.3 212.4,129.3 223.8,136.8 242.8,125.7" fill="#ff2a0a" opacity=".85"/><polygon points="218.5,185.9 217.3,164.1 195.4,160.3 195.4,160.3 207.6,172.8 218.5,185.9" fill="#ff2a0a" opacity=".85"/></g><polygon points="239.1,190.6 218.0,184.3 208.4,197.8 183.0,192.6 166.1,204.4 147.8,202.0 147.8,202.0 166.7,207.4 183.6,197.3 209.6,202.3 219.0,187.5 239.1,190.6" fill="#ff7a1c"/><polygon points="242.8,125.7 224.5,128.6 210.9,121.0 194.7,136.3 194.7,136.3 211.8,125.6 224.1,133.1 242.8,125.7" fill="#ff7a1c"/><polygon points="218.5,185.9 214.3,166.8 195.4,160.3 195.4,160.3 210.6,170.1 218.5,185.9" fill="#ff7a1c"/><polygon points="239.1,190.6 218.3,185.3 208.8,199.3 183.2,194.1 166.3,205.4 147.8,202.0 147.8,202.0 166.5,206.4 183.4,195.7 209.2,200.8 218.6,186.4 239.1,190.6" fill="#fff0bd"/><polygon points="242.8,125.7 224.3,130.1 211.2,122.5 194.7,136.3 194.7,136.3 211.5,124.1 224.2,131.7 242.8,125.7" fill="#fff0bd"/><polygon points="218.5,185.9 213.1,167.9 195.4,160.3 195.4,160.3 211.8,169.0 218.5,185.9" fill="#fff0bd"/><polyline points="96.0,224.0 92.2,190.2 231.5,87.8" fill="none" stroke="#8a7276" stroke-opacity=".55" stroke-width="2"/>
  <polygon points="280.5,87.8 419.8,190.2 261.1,258.7 257.8,234.2 272.4,212.7 264.9,189.7 280.4,168.3 269.0,144.9 283.1,127.3 271.3,106.9" fill="url(#topFace)"/><polygon points="419.8,190.2 416.0,224.0 257.2,292.5 261.5,281.9 253.6,270.9 261.1,258.7" fill="url(#sideR)"/><g filter="url(#blur4)"><polygon points="280.4,168.3 300.5,168.7 310.7,185.8 335.7,180.9 350.4,192.9 376.1,185.2 376.1,185.2 352.8,184.0 338.4,168.6 314.0,174.2 303.4,160.7 280.4,168.3" fill="#ff2a0a" opacity=".85"/><polygon points="272.4,212.7 291.4,228.0 301.4,219.1 319.0,227.0 319.0,227.0 303.6,207.1 291.5,215.8 272.4,212.7" fill="#ff2a0a" opacity=".85"/><polygon points="312.3,180.0 310.8,198.3 310.5,214.0 310.5,214.0 323.7,199.0 312.3,180.0" fill="#ff2a0a" opacity=".85"/></g><polygon points="280.4,168.3 301.4,166.2 311.7,182.2 336.6,177.1 351.1,190.2 376.1,185.2 376.1,185.2 352.1,186.8 337.6,172.4 313.0,177.7 302.5,163.2 280.4,168.3" fill="#ff7a1c"/><polygon points="272.4,212.7 291.4,224.2 302.1,215.4 319.0,227.0 319.0,227.0 302.9,210.8 291.5,219.5 272.4,212.7" fill="#ff7a1c"/><polygon points="312.3,180.0 314.8,198.5 310.5,214.0 310.5,214.0 319.7,198.8 312.3,180.0" fill="#ff7a1c"/><polygon points="280.4,168.3 301.8,165.2 312.1,180.8 336.9,175.6 351.4,189.1 376.1,185.2 376.1,185.2 351.8,187.9 337.2,173.9 312.5,179.2 302.2,164.2 280.4,168.3" fill="#fff0bd"/><polygon points="272.4,212.7 291.4,222.7 302.4,213.9 319.0,227.0 319.0,227.0 302.7,212.3 291.4,221.1 272.4,212.7" fill="#fff0bd"/><polygon points="312.3,180.0 316.4,198.6 310.5,214.0 310.5,214.0 318.1,198.7 312.3,180.0" fill="#fff0bd"/><polyline points="416.0,224.0 419.8,190.2 280.5,87.8" fill="none" stroke="#8a7276" stroke-opacity=".55" stroke-width="2"/>

  <!-- the split edges glowing hot -->
  <polyline points="231.5,87.8 226.8,108.5 242.8,125.7 233.0,146.0 249.4,166.3 239.1,190.6 251.6,211.3 242.2,235.5 250.9,258.7 246.4,272.3 256.5,281.2 254.8,292.5" fill="none" stroke="#ffcf6a" stroke-width="2" stroke-linejoin="miter"/>
  <polyline points="280.5,87.8 271.3,106.9 283.1,127.3 269.0,144.9 280.4,168.3 264.9,189.7 272.4,212.7 257.8,234.2 261.1,258.7 253.6,270.9 261.5,281.9 257.2,292.5" fill="none" stroke="#ffcf6a" stroke-width="2" stroke-linejoin="miter"/>

  <polygon points="231.5,87.8 226.8,108.5 242.8,125.7 233.0,146.0 249.4,166.3 239.1,190.6 251.6,211.3 242.2,235.5 250.9,258.7 246.4,272.3 256.5,281.2 254.8,292.5 257.2,292.5 261.5,281.9 253.6,270.9 261.1,258.7 257.8,234.2 272.4,212.7 264.9,189.7 280.4,168.3 269.0,144.9 283.1,127.3 271.3,106.9 280.5,87.8" fill="#ffb13a" filter="url(#blur8)" opacity=".45"/>
  <!-- seam light spill -->
  <g filter="url(#blur4)" opacity=".5">
    <polygon points="106.0,224.0 256.0,310.0 406.0,224.0 406.0,250.0 256.0,336.0 106.0,250.0" fill="#ffb13a"/>
    <polygon points="106.0,284.0 256.0,370.0 406.0,284.0 406.0,296.0 256.0,382.0 106.0,296.0" fill="#ff6a1a" opacity=".7"/>
  </g>
  <polyline points="106.0,250.0 256.0,336.0 406.0,250.0" fill="none" stroke="#fff3c4" stroke-width="1.6" opacity=".9"/>

  <g filter="url(#blur2)" opacity=".8"><rect x="253.0" y="37.0" width="6" height="6" fill="#ffd27a" transform="rotate(-24 256 40)"/><rect x="240.0" y="68.0" width="4" height="4" fill="#ffb347" transform="rotate(-24 242 70)"/><rect x="271.5" y="55.5" width="5" height="5" fill="#ff8c2a" transform="rotate(-24 274 58)"/><rect x="224.5" y="32.5" width="3" height="3" fill="#ff6a1a" transform="rotate(45 226 34)"/><rect x="288.5" y="28.5" width="3" height="3" fill="#ffe3a0" transform="rotate(45 290 30)"/><rect x="147.5" y="115.5" width="5" height="5" fill="#ff7a1c" transform="rotate(-24 150 118)"/><rect x="357.0" y="101.0" width="6" height="6" fill="#ffb347" transform="rotate(45 360 104)"/><rect x="116.5" y="164.5" width="3" height="3" fill="#ff5a14" transform="rotate(0 118 166)"/><rect x="402.0" y="148.0" width="4" height="4" fill="#ff8c2a" transform="rotate(-24 404 150)"/><rect x="194.5" y="60.5" width="3" height="3" fill="#ffc15e" transform="rotate(18 196 62)"/><rect x="320.0" y="68.0" width="4" height="4" fill="#ff6a1a" transform="rotate(45 322 70)"/><rect x="82.0" y="234.0" width="4" height="4" fill="#ff7a1c" transform="rotate(0 84 236)"/><rect x="433.5" y="225.5" width="5" height="5" fill="#ffb347" transform="rotate(0 436 228)"/><rect x="62.5" y="298.5" width="3" height="3" fill="#ff5a14" transform="rotate(-24 64 300)"/><rect x="450.5" y="302.5" width="3" height="3" fill="#ff6a1a" transform="rotate(-24 452 304)"/><rect x="178.5" y="94.5" width="3" height="3" fill="#ffe3a0" transform="rotate(45 180 96)"/><rect x="338.5" y="128.5" width="3" height="3" fill="#ffd27a" transform="rotate(0 340 130)"/></g>
  <rect x="253.0" y="37.0" width="6" height="6" fill="#ffd27a" transform="rotate(-24 256 40)"/><rect x="240.0" y="68.0" width="4" height="4" fill="#ffb347" transform="rotate(-24 242 70)"/><rect x="271.5" y="55.5" width="5" height="5" fill="#ff8c2a" transform="rotate(-24 274 58)"/><rect x="224.5" y="32.5" width="3" height="3" fill="#ff6a1a" transform="rotate(45 226 34)"/><rect x="288.5" y="28.5" width="3" height="3" fill="#ffe3a0" transform="rotate(45 290 30)"/><rect x="147.5" y="115.5" width="5" height="5" fill="#ff7a1c" transform="rotate(-24 150 118)"/><rect x="357.0" y="101.0" width="6" height="6" fill="#ffb347" transform="rotate(45 360 104)"/><rect x="116.5" y="164.5" width="3" height="3" fill="#ff5a14" transform="rotate(0 118 166)"/><rect x="402.0" y="148.0" width="4" height="4" fill="#ff8c2a" transform="rotate(-24 404 150)"/><rect x="194.5" y="60.5" width="3" height="3" fill="#ffc15e" transform="rotate(18 196 62)"/><rect x="320.0" y="68.0" width="4" height="4" fill="#ff6a1a" transform="rotate(45 322 70)"/><rect x="82.0" y="234.0" width="4" height="4" fill="#ff7a1c" transform="rotate(0 84 236)"/><rect x="433.5" y="225.5" width="5" height="5" fill="#ffb347" transform="rotate(0 436 228)"/><rect x="62.5" y="298.5" width="3" height="3" fill="#ff5a14" transform="rotate(-24 64 300)"/><rect x="450.5" y="302.5" width="3" height="3" fill="#ff6a1a" transform="rotate(-24 452 304)"/><rect x="178.5" y="94.5" width="3" height="3" fill="#ffe3a0" transform="rotate(45 180 96)"/><rect x="338.5" y="128.5" width="3" height="3" fill="#ffd27a" transform="rotate(0 340 130)"/>
  <rect x="17" y="17" width="478" height="478" rx="111" fill="none" stroke="#ff8a5c" stroke-opacity=".14" stroke-width="2"/>
</g>
</svg>
